<svg xmlns="http://www.w3.org/2000/svg" width="1200" height="760" viewBox="0 0 1200 760" role="img" aria-labelledby="title desc">
  <title id="title">Mini e-shop template preview</title>
  <desc id="desc">Dark premium e-commerce cover with laptop, phone, product cards and cart interface.</desc>
  <defs>
    <linearGradient id="bg" x1="0" y1="0" x2="1" y2="1">
      <stop stop-color="#0f172a"/>
      <stop offset=".48" stop-color="#111827"/>
      <stop offset="1" stop-color="#042f2e"/>
    </linearGradient>
    <linearGradient id="accent" x1="0" y1="0" x2="1" y2="1">
      <stop stop-color="#18c8ff"/>
      <stop offset="1" stop-color="#37e07d"/>
    </linearGradient>
    <filter id="shadow" x="-20%" y="-20%" width="140%" height="140%">
      <feDropShadow dx="0" dy="24" stdDeviation="28" flood-color="#000" flood-opacity=".34"/>
    </filter>
  </defs>
  <rect width="1200" height="760" fill="url(#bg)"/>
  <path d="M0 526C183 443 307 457 454 497c143 39 279 99 445 35 136-53 219-151 301-177v405H0Z" fill="#0b1220" opacity=".82"/>
  <circle cx="996" cy="124" r="170" fill="#16c8ff" opacity=".12"/>
  <circle cx="178" cy="627" r="216" fill="#22c55e" opacity=".1"/>

  <g filter="url(#shadow)">
    <rect x="142" y="154" width="660" height="418" rx="28" fill="#111827" stroke="#334155" stroke-width="2"/>
    <rect x="175" y="191" width="594" height="332" rx="16" fill="#0b1020"/>
    <rect x="204" y="222" width="240" height="46" rx="23" fill="#1f2937"/>
    <circle cx="230" cy="245" r="9" fill="#93a4ba"/>
    <rect x="254" y="237" width="140" height="16" rx="8" fill="#64748b"/>
    <rect x="474" y="222" width="84" height="46" rx="12" fill="url(#accent)"/>
    <rect x="576" y="222" width="164" height="46" rx="12" fill="#1f2937"/>

    <rect x="204" y="302" width="250" height="158" rx="16" fill="#172033" stroke="#273549"/>
    <rect x="222" y="322" width="96" height="96" rx="14" fill="#e5f3ff"/>
    <rect x="340" y="322" width="82" height="15" rx="8" fill="#e2e8f0"/>
    <rect x="340" y="351" width="64" height="12" rx="6" fill="#94a3b8"/>
    <rect x="340" y="385" width="90" height="20" rx="10" fill="#ef4444"/>
    <rect x="340" y="424" width="88" height="22" rx="11" fill="#22c55e"/>

    <rect x="486" y="302" width="250" height="158" rx="16" fill="#172033" stroke="#273549"/>
    <rect x="504" y="322" width="96" height="96" rx="14" fill="#fff7ed"/>
    <rect x="622" y="322" width="82" height="15" rx="8" fill="#e2e8f0"/>
    <rect x="622" y="351" width="64" height="12" rx="6" fill="#94a3b8"/>
    <rect x="622" y="385" width="90" height="20" rx="10" fill="#ef4444"/>
    <rect x="622" y="424" width="88" height="22" rx="11" fill="#22c55e"/>
  </g>

  <g filter="url(#shadow)">
    <rect x="754" y="126" width="230" height="492" rx="34" fill="#070b14" stroke="#334155" stroke-width="2"/>
    <rect x="774" y="172" width="190" height="390" rx="22" fill="#0f172a"/>
    <rect x="797" y="202" width="146" height="34" rx="17" fill="#1f2937"/>
    <rect x="797" y="262" width="146" height="112" rx="16" fill="url(#accent)" opacity=".92"/>
    <rect x="817" y="286" width="76" height="13" rx="7" fill="#082f49"/>
    <rect x="817" y="318" width="98" height="20" rx="10" fill="#052e16"/>
    <rect x="797" y="400" width="66" height="86" rx="12" fill="#f8fafc"/>
    <rect x="877" y="400" width="66" height="86" rx="12" fill="#f8fafc"/>
    <rect x="797" y="504" width="146" height="34" rx="12" fill="#22c55e"/>
  </g>

  <g transform="translate(122 598)">
    <rect width="806" height="74" rx="16" fill="#111827" stroke="#334155"/>
    <text x="28" y="48" font-family="Arial, sans-serif" font-size="30" font-weight="800" fill="#f8fafc">Интернет-магазин / mini e-shop</text>
    <rect x="520" y="18" width="250" height="38" rx="19" fill="#ef4444"/>
    <text x="548" y="44" font-family="Arial, sans-serif" font-size="18" font-weight="800" fill="#fff">20 000 Kč без акции</text>
  </g>
</svg>
